<svg width="73" height="60" fill="none" xmlns="http://www.w3.org/2000/svg"><path d="M9.31 46.069c0-7.732 6.268-14 14-14h29.931c7.732 0 14 6.268 14 14v13.93H9.311V46.07z" fill="#FFBA4A"/><path fill-rule="evenodd" clip-rule="evenodd" d="M72.416 23.793h-9.313v4.656a4.656 4.656 0 014.656 4.641 4.656 4.656 0 014.656-4.64v4.655-9.312zm-9.312 0h9.311v4.656a4.656 4.656 0 01-4.655-4.615 4.656 4.656 0 01-4.656 4.615v-4.656zM0 19.139c5.428.001 9.828 4.401 9.828 9.83.001-5.43 4.402-9.83 9.83-9.83v9.83-19.66h-9.83c0 5.429-4.4 9.83-9.828 9.83zm9.829-9.83h9.83v9.83c-5.43 0-9.83-4.4-9.83-9.83z" fill="#EB5555"/><circle cx="38.793" cy="13.966" r="13.966" fill="#FFBA4A"/><path fill="#A03C7D" d="M21.724 49.655h33.103V60H21.724z"/><path fill="#A03C7D" d="M49.655 32.069h5.172V60h-5.172zm-27.931 0h5.172V60h-5.172z"/></svg>