<svg width="59" height="60" fill="none" xmlns="http://www.w3.org/2000/svg"><path fill-rule="evenodd" clip-rule="evenodd" d="M58.261 0h-4.348 4.348v8.696V0zm-8.696 8.696V4.348a4.348 4.348 0 014.348 4.32 4.348 4.348 0 014.32-4.32 4.348 4.348 0 01-4.32-4.32 4.348 4.348 0 01-4.348 4.32v4.348zM8.261 23.478a8.26 8.26 0 008.26 8.26v.001a8.26 8.26 0 00-8.26 8.26A8.26 8.26 0 000 31.74v-8.261h8.261zm-8.26 0h8.26a8.26 8.26 0 01-8.26 8.261v-8.26z" fill="#EB5555"/><path d="M1.74 16.348c0-6.628 5.372-12 12-12h25.565c6.627 0 12 5.372 12 12v4.521H1.739v-4.521z" fill="#FFBA4A"/><path d="M22.609 16.348c0-6.628 5.372-12 12-12h4.696c6.627 0 12 5.372 12 12v34.956H22.609V16.348z" fill="#FFBA4A"/><path d="M1.74 14.783c0-5.764 4.671-10.435 10.434-10.435 5.763 0 10.435 4.671 10.435 10.434v6.087H1.739v-6.086z" fill="#C99035"/><path fill="#993280" d="M29.565 16.522h26.957v3.913H29.565z"/><path fill="#A03C7D" d="M29.565 24.348h26.957v3.913H29.565zm0 7.826h18.261v3.913H29.565z"/><path d="M31.304 60v-8.696h6.957V60l-3.479-3.478L31.304 60z" fill="#993280"/><circle cx="34.783" cy="47.826" r="5.217" fill="#EB5555"/></svg>