<svg width="3544" height="1001" fill="none" xmlns="http://www.w3.org/2000/svg"><path d="M993.101 117.734h499.409v131.124H1138.9v150.06h275.98v131.124H1138.9v266.51H993.101V117.734zm683.359 203.55v475.268h-131.12V321.284h131.12zm-11.36-188.402c13.89 13.254 20.83 30.927 20.83 53.018 0 21.775-6.94 39.29-20.83 52.544-13.88 13.254-32.82 19.882-56.8 19.882-22.09 0-39.77-6.628-53.02-19.882-12.94-13.254-19.41-30.769-19.41-52.544 0-22.091 6.63-39.764 19.88-53.018 13.26-13.255 30.77-19.882 52.55-19.882 23.98 0 42.92 6.627 56.8 19.882zm278.16 513.61l-101.78 150.06h-140.59l160-242.368-150.53-232.9h145.8l87.1 140.592 87.1-140.592h145.8l-150.54 232.9 160 242.368h-140.59l-101.77-150.06zm532.83 159.527c-27.14 0-52.55-5.523-76.22-16.568-23.35-11.361-39.92-22.564-49.7-33.61l-14.68-17.514V1000.1h-130.65V321.284h130.65v58.225c1.27-1.893 3.16-4.26 5.68-7.1 2.84-2.84 8.52-8.048 17.05-15.622a181.961 181.961 0 0128.4-20.828c10.1-6.312 23.19-11.834 39.29-16.568 16.09-5.049 32.82-7.574 50.18-7.574 61.53 0 114.87 23.984 160 71.953 45.44 47.653 68.16 106.035 68.16 175.148s-22.72 127.653-68.16 175.622c-45.13 47.653-98.47 71.479-160 71.479zm58.22-340.829c-22.41-24.615-49.86-36.923-82.37-36.923-32.19 0-59.64 12.308-82.36 36.923-22.73 24.3-34.09 55.543-34.09 93.728 0 38.186 11.36 69.586 34.09 94.201 22.72 24.616 50.17 36.924 82.36 36.924 32.51 0 59.96-12.308 82.37-36.924 22.72-24.615 34.08-56.015 34.08-94.201 0-38.185-11.36-69.428-34.08-93.728zm669.16 137.278h-344.14c5.05 25.878 18.78 47.811 41.18 65.799 22.41 17.673 50.65 26.509 84.74 26.509 24.61 0 47.33-4.733 68.16-14.201 21.15-9.783 35.98-19.566 44.5-29.349l13.73-14.675 67.69 87.101-8.52 8.521c-4.1 4.102-12.62 10.887-25.56 20.355-12.94 9.467-26.67 17.988-41.19 25.562-14.51 7.258-33.45 13.728-56.8 19.408-23.04 5.681-46.87 8.521-71.48 8.521-69.74 0-129.23-24.142-178.46-72.426-49.23-48.6-73.85-106.825-73.85-174.675 0-67.85 24.3-125.917 72.9-174.201 48.6-48.6 106.83-72.9 174.68-72.9 67.85 0 124.33 22.722 169.46 68.166 45.13 45.128 67.7 101.617 67.7 169.468l-4.74 53.017zM3041.1 448.149c-18.93-16.411-42.28-24.616-70.05-24.616-27.78 0-51.44 8.047-71.01 24.142-19.25 16.095-32.82 37.081-40.71 62.959h218.22c-5.04-25.247-17.19-46.075-36.45-62.485zm502.06-131.598v131.124c-9.78-3.156-24.3-4.891-43.55-5.207-34.39 0-61.69 10.888-81.89 32.663-19.88 21.775-29.82 53.018-29.82 93.728v227.693h-130.65V321.284h130.65v58.225c3.79-4.418 9.15-10.098 16.09-17.041 6.95-7.258 22.09-16.726 45.45-28.402 23.67-11.677 48.44-17.515 74.32-17.515h19.4z" fill="#fff"/><path d="M660 0H237.41c-17.92 0-35.377 1.99-52.162 5.763C79.223 29.592 0 124.52 0 238h422.59c17.92 0 35.377-1.99 52.162-5.763C580.777 208.408 660 113.479 660 0z" fill="#F58599"/><path d="M0 1000V237.53c0-17.93 1.99-35.395 5.763-52.189C29.592 79.263 124.52 0 238 0v762.47c0 17.93-1.99 35.395-5.763 52.189C208.408 920.737 113.479 1000 0 1000z" fill="#EB5555"/><path d="M503 372H237.264c-17.909 0-35.355 1.999-52.13 5.787C79.174 401.716 0 497.044 0 611h265.736c17.909 0 35.355-1.999 52.13-5.787C423.826 581.284 503 485.956 503 372z" fill="#9871E3"/><path fill-rule="evenodd" clip-rule="evenodd" d="M238 373.257V0C124.521 0 29.592 79.334 5.763 185.508 1.99 202.317 0 219.798 0 237.743V610.77c.108-113.255 79.492-207.969 185.708-231.757 16.827-3.768 34.327-5.756 52.292-5.756z" fill="#FFBA4A"/><path d="M5.763 185.708C1.99 202.535 0 220.035 0 238h238V0c-17.731 0-35.009 1.939-51.634 5.616l-.658.147C96.246 25.819 25.819 96.246 5.763 185.708z" fill="#F5664A"/><path d="M5.763 558.489C1.99 575.386 0 592.96 0 611h238V372c-17.731 0-35.009 1.947-51.634 5.64l-.658.147C96.246 397.928 25.819 468.651 5.763 558.489z" fill="#993280"/></svg>